<svg width="513" height="96" viewBox="0 0 513 96" version="1.1" xmlns="http://www.w3.org/2000/svg" xmlns:xlink="http://www.w3.org/1999/xlink">
<title>text-3</title>
<desc>Created using Figma</desc>
<g id="Canvas" transform="translate(-4823 328)">
<g id="text-3">
<g id="Group 5">
<g id="&#208;&#163;&#209;&#129;&#208;&#187;&#208;&#190;&#208;&#178;&#208;&#184;&#209;&#143;">
<use xlink:href="#path0_fill" transform="translate(4823 -276.637)" fill="#8D76BE"/>
<use xlink:href="#path1_fill" transform="translate(4823 -276.637)" fill="#8D76BE"/>
<use xlink:href="#path2_fill" transform="translate(4823 -276.637)" fill="#8D76BE"/>
<use xlink:href="#path3_fill" transform="translate(4823 -276.637)" fill="#8D76BE"/>
<use xlink:href="#path4_fill" transform="translate(4823 -276.637)" fill="#8D76BE"/>
<use xlink:href="#path5_fill" transform="translate(4823 -276.637)" fill="#8D76BE"/>
<use xlink:href="#path6_fill" transform="translate(4823 -276.637)" fill="#8D76BE"/>
</g>
</g>
<g id="&#208;&#163;&#209;&#129;&#208;&#187;&#208;&#190;&#208;&#178;&#208;&#184;&#209;&#143;" opacity="0.06">
<use xlink:href="#path7_fill" transform="translate(4940 -328)" fill="#8D76BE"/>
<use xlink:href="#path8_fill" transform="translate(4940 -328)" fill="#8D76BE"/>
<use xlink:href="#path9_fill" transform="translate(4940 -328)" fill="#8D76BE"/>
<use xlink:href="#path10_fill" transform="translate(4940 -328)" fill="#8D76BE"/>
<use xlink:href="#path11_fill" transform="translate(4940 -328)" fill="#8D76BE"/>
<use xlink:href="#path12_fill" transform="translate(4940 -328)" fill="#8D76BE"/>
<use xlink:href="#path13_fill" transform="translate(4940 -328)" fill="#8D76BE"/>
</g>
</g>
</g>
<defs>
<path id="path0_fill" d="M 0 0.960199L 14.528 31.6866L 8.576 43.6571L 20.288 43.6571L 39.488 0.960199L 27.648 0.960199L 20.544 19.9722L 12.416 0.960199L 0 0.960199Z"/>
<path id="path1_fill" d="M 73.386 29.3821C 69.482 33.671 65.386 33.8631 63.722 33.8631C 60.586 33.8631 57.642 32.6468 55.786 30.9184C 53.546 28.806 52.33 25.5413 52.33 22.5967C 52.33 19.5881 53.418 16.2594 56.042 13.8269C 58.09 11.9705 60.522 11.0103 63.722 11.0103C 65.578 11.0103 69.802 11.2663 73.386 15.6833L 73.386 2.43251C 68.842 0.57612 65.45 0.256054 63.402 0.256054C 56.746 0.256054 51.05 3.07264 47.274 6.91344C 43.434 10.8183 40.81 16.5795 40.81 22.6607C 40.81 28.2299 43.114 34.0551 47.274 38.216C 50.794 41.6727 56.362 44.6173 63.786 44.6173C 66.538 44.6173 68.97 44.1052 73.386 42.5049L 73.386 29.3821Z"/>
<path id="path2_fill" d="M 85.2025 0.960199L 85.2025 24.5171C 85.2025 30.1503 83.6665 31.9427 82.9625 32.5828C 82.1945 33.2869 80.9785 33.8631 79.2505 33.8631C 78.3545 33.8631 77.4585 33.671 76.6905 33.415L 76.6905 43.6571C 77.5225 43.8491 79.5065 44.2332 81.7465 44.2332C 86.2905 44.2332 89.4905 42.7609 91.7305 40.5845C 95.8905 36.4236 96.2105 29.9582 96.2105 25.8614L 96.2105 10.3061L 106.963 10.3061L 106.963 43.6571L 118.098 43.6571L 118.098 0.960199L 85.2025 0.960199Z"/>
<path id="path3_fill" d="M 172.227 22.3407C 172.227 16.6435 170.051 10.6262 165.507 6.33732C 161.154 2.17645 155.01 0 148.674 0C 142.339 0 136.195 2.17645 131.842 6.33732C 127.299 10.6262 125.122 16.6435 125.122 22.3407C 125.122 27.9738 127.299 33.9271 131.842 38.28C 136.195 42.4408 142.339 44.6173 148.674 44.6173C 155.01 44.6173 161.154 42.4408 165.507 38.28C 170.051 33.9271 172.227 27.9738 172.227 22.3407ZM 148.674 10.7542C 151.618 10.7542 154.883 11.9065 157.251 14.1469C 159.234 16.0673 160.706 19.012 160.706 22.3407C 160.706 25.6053 159.234 28.55 157.251 30.5344C 155.267 32.5188 152.451 33.8631 148.674 33.8631C 144.962 33.8631 142.083 32.4548 140.035 30.4704C 138.434 28.934 136.643 26.3095 136.643 22.5327C 136.643 19.5241 137.73 16.3874 140.035 14.1469C 142.339 11.8425 145.603 10.7542 148.674 10.7542Z"/>
<path id="path4_fill" d="M 197.085 43.6571C 202.333 43.6571 206.365 41.9928 208.669 39.6243C 210.269 38.0239 211.805 35.2714 211.805 31.2385C 211.805 27.8458 210.652 25.0932 208.924 23.4289C 207.581 22.1486 205.34 21.1244 203.1 20.8683C 204.701 20.1642 205.661 19.204 206.557 17.5397C 207.452 15.7473 207.772 14.1469 207.772 12.2906C 207.772 8.51377 206.62 5.88923 205.148 4.28889C 202.525 1.40829 198.876 0.960199 195.805 0.960199L 179.292 0.960199L 179.292 43.6571L 197.085 43.6571ZM 190.365 9.47398L 192.413 9.47398C 194.589 9.47398 195.933 10.0501 196.637 10.7542C 197.277 11.4584 197.66 12.5466 197.66 13.6348C 197.66 14.595 197.34 15.7473 196.637 16.4514C 195.485 17.6677 193.565 17.7957 192.413 17.7957L 190.365 17.7957L 190.365 9.47398ZM 190.365 26.0534L 192.669 26.0534C 195.421 26.0534 198.173 26.1174 199.516 27.4617C 200.156 28.1019 200.604 29.1901 200.604 30.5344C 200.604 31.7506 200.22 32.7108 199.708 33.2869C 198.492 34.6952 195.933 35.0153 192.861 35.0153L 190.365 35.0153L 190.365 26.0534Z"/>
<path id="path5_fill" d="M 218.855 0.960199L 218.855 43.6571L 230.183 43.6571L 246.183 16.7715L 246.183 43.6571L 257.319 43.6571L 257.319 0.960199L 245.991 0.960199L 229.991 27.8458L 229.991 0.960199L 218.855 0.960199Z"/>
<path id="path6_fill" d="M 262.708 43.6571L 275.509 43.6571L 284.66 29.1261L 285.749 29.1261L 285.749 43.6571L 296.884 43.6571L 296.884 0.960199L 280.436 0.960199C 277.556 0.960199 272.117 1.34428 268.469 5.24909C 266.357 7.48956 264.948 11.0743 264.948 15.2992C 264.948 19.14 266.036 21.9566 268.276 24.2611C 270.58 26.6296 273.076 27.3337 274.612 27.5898L 262.708 43.6571ZM 285.749 20.5483L 282.612 20.5483C 280.948 20.5483 278.837 20.1642 277.685 19.076C 276.917 18.3078 276.341 17.0275 276.341 15.4272C 276.341 13.5708 277.108 12.4186 277.812 11.7785C 279.349 10.3702 281.46 10.3061 282.612 10.3061L 285.749 10.3061L 285.749 20.5483Z"/>
<path id="path7_fill" d="M 0 1.20541L 18.483 38.6537L 10.6417 54.8063L 30.805 54.8063L 55.369 1.20541L 35.3657 1.20541L 29.9249 15.8311C 29.3648 17.2776 28.8847 19.1259 28.6447 20.8135L 28.0846 20.8135C 27.7645 19.0456 27.2844 17.5991 26.6443 16.1526L 20.4033 1.20541L 0 1.20541Z"/>
<path id="path8_fill" d="M 98.1566 33.832C 96.5563 35.6 92.7957 38.8948 87.3548 38.8948C 83.5142 38.8948 81.0338 37.3679 79.4335 35.841C 77.3532 33.832 76.313 31.0194 76.313 28.1264C 76.313 25.3137 77.2732 22.5011 79.1135 20.4921C 81.0338 18.4027 83.8342 17.1973 86.8747 17.1973C 91.7555 17.1973 95.9162 20.251 98.1566 22.5011L 97.5965 2.08938C 93.3558 0.642885 88.8751 0 84.8744 0C 74.8728 0 68.4717 4.3395 64.7111 8.11647C 59.8303 13.0989 56.7098 20.1706 56.7098 28.4478C 56.7098 36.0018 59.4303 43.2343 64.4711 48.2167C 69.752 53.5205 77.1932 56.0117 84.1543 56.0117C 86.6347 56.0117 92.5557 55.7706 97.5965 53.8419L 98.1566 33.832Z"/>
<path id="path9_fill" d="M 112.926 1.20541L 112.926 30.5372C 112.926 32.8677 112.846 36.5643 110.685 38.6537C 109.165 40.1002 107.165 40.2609 105.405 40.2609C 104.204 40.2609 103.404 40.2609 102.204 39.9395L 102.204 55.0473C 104.604 55.4492 107.485 55.6902 110.285 55.6902C 114.526 55.6902 120.367 55.1277 124.608 50.7078C 129.489 45.5647 129.729 37.6894 129.729 34.2338L 129.729 18.0812L 140.93 18.0812L 140.93 54.8063L 159.573 54.8063L 159.573 1.20541L 112.926 1.20541Z"/>
<path id="path10_fill" d="M 227.109 27.9657C 227.109 19.4474 223.829 12.8578 219.668 8.59864C 215.107 3.93769 207.666 0 197.505 0C 187.343 0 179.902 3.93769 175.341 8.59864C 171.18 12.8578 167.9 19.4474 167.9 27.9657C 167.9 36.5643 171.18 43.1539 175.341 47.413C 179.902 52.074 187.343 56.0117 197.505 56.0117C 207.666 56.0117 215.107 52.074 219.668 47.413C 223.829 43.1539 227.109 36.5643 227.109 27.9657ZM 197.505 17.2776C 200.705 17.2776 203.025 18.5634 204.466 20.0099C 206.386 21.8582 207.506 24.6709 207.506 28.046C 207.506 31.4212 206.226 34.2338 204.466 36.0018C 202.865 37.609 200.465 38.734 197.505 38.734C 194.544 38.734 192.144 37.609 190.543 36.0018C 188.623 34.0731 187.503 31.0997 187.503 28.046C 187.503 25.153 188.623 22.0189 190.543 20.0099C 191.824 18.6438 194.064 17.2776 197.505 17.2776Z"/>
<path id="path11_fill" d="M 235.467 54.8063L 261.471 54.8063C 265.712 54.8063 271.153 54.4848 275.554 51.3507C 278.914 48.9399 281.314 44.8415 281.314 39.618C 281.314 36.0821 280.114 33.1088 277.394 30.5372C 275.714 28.93 273.953 27.8853 271.793 27.3228L 271.873 26.8406C 273.793 26.1174 275.474 24.8316 276.514 23.5458C 278.274 21.376 278.754 18.7241 278.754 16.2329C 278.754 10.1255 275.954 6.91105 274.673 5.70564C 270.433 1.68758 263.312 1.20541 258.751 1.20541L 235.467 1.20541L 235.467 54.8063ZM 253.39 14.0632L 256.43 14.0632C 257.151 14.0632 258.911 14.1436 259.951 14.9472C 260.431 15.349 261.151 16.2329 261.151 17.7598C 261.151 19.2063 260.591 20.0903 260.111 20.5724C 259.231 21.4564 257.551 21.7779 256.43 21.7779L 253.39 21.7779L 253.39 14.0632ZM 253.39 33.0284L 257.551 33.0284C 258.591 33.0284 260.511 33.1088 261.791 34.1535C 262.671 34.8767 263.232 36.0018 263.232 37.3679C 263.232 39.1358 262.351 40.3413 261.391 40.9841C 260.111 41.7878 258.431 41.8681 257.311 41.8681L 253.39 41.8681L 253.39 33.0284Z"/>
<path id="path12_fill" d="M 289.616 1.20541L 289.616 54.8063L 306.979 54.8063L 318.661 34.716C 319.781 32.7873 321.382 29.0103 322.182 26.6799L 322.902 26.6799C 322.422 29.3318 321.942 33.5909 321.942 36.5643L 321.942 54.8063L 340.345 54.8063L 340.345 1.20541L 322.982 1.20541L 311.3 22.0993C 310.1 24.1887 308.66 27.8049 307.779 30.1354L 307.059 30.1354C 307.539 27.3228 308.019 23.0636 308.019 20.251L 308.019 1.20541L 289.616 1.20541Z"/>
<path id="path13_fill" d="M 348.872 54.8063L 370.156 54.8063L 377.037 39.2966L 377.357 39.2966L 377.357 54.8063L 396 54.8063L 396 1.20541L 372.716 1.20541C 367.515 1.20541 360.314 1.8483 355.273 6.91105C 351.193 11.0095 350.393 16.2329 350.393 20.1706C 350.393 24.1083 351.113 27.8853 354.073 31.0194C 355.673 32.707 358.314 34.5553 362.074 35.0374L 362.074 35.4392C 360.794 36.4839 359.914 37.5286 359.114 38.8144L 348.872 54.8063ZM 377.357 25.3137L 374.637 25.3137C 373.436 25.3137 371.596 24.9923 370.476 24.1887C 369.516 23.4654 368.796 22.4207 368.796 20.6528C 368.796 18.9652 369.516 17.9205 370.076 17.358C 371.516 15.9919 373.596 15.9115 374.637 15.9115L 377.357 15.9115L 377.357 25.3137Z"/>
</defs>
</svg>
