<svg width="514" height="96" viewBox="0 0 514 96" version="1.1" xmlns="http://www.w3.org/2000/svg" xmlns:xlink="http://www.w3.org/1999/xlink">
<title>text</title>
<desc>Created using Figma</desc>
<g id="Canvas" transform="translate(128 328)">
<g id="text">
<g id="&#208;&#154;&#208;&#190;&#208;&#189;&#209;&#130;&#208;&#181;&#208;&#189;&#209;&#130;" opacity="0.06">
<use xlink:href="#path0_fill" transform="translate(-87.7376 -328)" fill="#8D76BE"/>
<use xlink:href="#path1_fill" transform="translate(-87.7376 -328)" fill="#8D76BE"/>
<use xlink:href="#path2_fill" transform="translate(-87.7376 -328)" fill="#8D76BE"/>
<use xlink:href="#path3_fill" transform="translate(-87.7376 -328)" fill="#8D76BE"/>
<use xlink:href="#path4_fill" transform="translate(-87.7376 -328)" fill="#8D76BE"/>
<use xlink:href="#path5_fill" transform="translate(-87.7376 -328)" fill="#8D76BE"/>
<use xlink:href="#path6_fill" transform="translate(-87.7376 -328)" fill="#8D76BE"/>
</g>
<g id="&#208;&#154;&#208;&#190;&#208;&#189;&#209;&#130;&#208;&#181;&#208;&#189;&#209;&#130;">
<use xlink:href="#path7_fill" transform="translate(-132 -290.98)" fill="#8D76BE"/>
</g>
</g>
</g>
<defs>
<path id="path0_fill" d="M 24.1161 70.8712L 24.1161 48.5291C 24.1161 46.2429 24.0121 44.3724 23.5963 41.9823L 24.1161 41.9823C 25.0516 44.0607 26.195 46.5547 27.4424 48.633L 40.1242 70.8712L 69.2298 70.8712L 45.3216 35.5395L 66.9429 1.55875L 39.7084 1.55875L 27.7543 24.0048C 26.5069 26.2909 25.5714 27.8497 24.1161 31.7985L 23.5963 31.7985C 24.0121 28.681 24.1161 26.187 24.1161 23.0695L 24.1161 1.55875L 0 1.55875L 0 70.8712L 24.1161 70.8712Z"/>
<path id="path1_fill" d="M 147.907 36.163C 147.907 25.1478 143.646 16.6267 138.24 11.1191C 132.315 5.09191 122.648 0 109.446 0C 96.245 0 86.5778 5.09191 80.6527 11.1191C 75.2474 16.6267 70.9855 25.1478 70.9855 36.163C 70.9855 47.2821 75.2474 55.8033 80.6527 61.3108C 86.5778 67.338 96.245 72.4299 109.446 72.4299C 122.648 72.4299 132.315 67.338 138.24 61.3108C 143.646 55.8033 147.907 47.2821 147.907 36.163ZM 109.446 22.3421C 113.604 22.3421 116.619 24.0048 118.49 25.8753C 120.985 28.2653 122.44 31.9024 122.44 36.2669C 122.44 40.6314 120.777 44.2685 118.49 46.5547C 116.411 48.633 113.293 50.0878 109.446 50.0878C 105.6 50.0878 102.482 48.633 100.403 46.5547C 97.9082 44.0607 96.4529 40.2158 96.4529 36.2669C 96.4529 32.5259 97.9082 28.4732 100.403 25.8753C 102.066 24.1087 104.977 22.3421 109.446 22.3421Z"/>
<path id="path2_fill" d="M 182.985 70.8712L 182.985 46.7625L 198.37 46.7625L 198.37 70.8712L 222.59 70.8712L 222.59 1.55875L 198.37 1.55875L 198.37 25.0439L 182.985 25.0439L 182.985 1.55875L 158.765 1.55875L 158.765 70.8712L 182.985 70.8712Z"/>
<path id="path3_fill" d="M 269.163 70.8712L 269.163 23.4852L 283.301 24.1087L 283.301 1.55875L 230.287 1.55875L 230.287 24.1087L 244.424 23.4852L 244.424 70.8712L 269.163 70.8712Z"/>
<path id="path4_fill" d="M 338.436 70.8712L 338.436 51.8544L 316.191 51.8544L 316.191 45.2038L 335.838 45.2038L 335.838 27.0183L 316.191 27.0183L 316.191 20.5755L 337.813 20.5755L 337.813 1.55875L 291.036 1.55875L 291.036 70.8712L 338.436 70.8712Z"/>
<path id="path5_fill" d="M 373.422 70.8712L 373.422 46.7625L 388.807 46.7625L 388.807 70.8712L 413.027 70.8712L 413.027 1.55875L 388.807 1.55875L 388.807 25.0439L 373.422 25.0439L 373.422 1.55875L 349.202 1.55875L 349.202 70.8712L 373.422 70.8712Z"/>
<path id="path6_fill" d="M 459.601 70.8712L 459.601 23.4852L 473.738 24.1087L 473.738 1.55875L 420.724 1.55875L 420.724 24.1087L 434.861 23.4852L 434.861 70.8712L 459.601 70.8712Z"/>
<path id="path7_fill" d="M 15.552 15.312L 4.48 15.312L 4.48 58L 15.552 58L 15.552 39.504L 30.016 58L 44.352 58L 25.856 35.536L 42.816 15.312L 29.12 15.312L 15.552 32.912L 15.552 15.312ZM 90.914 36.688C 90.914 30.992 88.738 24.976 84.194 20.688C 79.842 16.528 73.698 14.352 67.362 14.352C 61.026 14.352 54.882 16.528 50.53 20.688C 45.986 24.976 43.81 30.992 43.81 36.688C 43.81 42.32 45.986 48.272 50.53 52.624C 54.882 56.784 61.026 58.96 67.362 58.96C 73.698 58.96 79.842 56.784 84.194 52.624C 88.738 48.272 90.914 42.32 90.914 36.688ZM 67.362 25.104C 70.306 25.104 73.57 26.256 75.938 28.496C 77.922 30.416 79.394 33.36 79.394 36.688C 79.394 39.952 77.922 42.896 75.938 44.88C 73.954 46.864 71.138 48.208 67.362 48.208C 63.65 48.208 60.77 46.8 58.722 44.816C 57.122 43.28 55.33 40.656 55.33 36.88C 55.33 33.872 56.418 30.736 58.722 28.496C 61.026 26.192 64.29 25.104 67.362 25.104ZM 109.052 15.312L 97.98 15.312L 97.98 58L 109.052 58L 109.052 40.72L 125.052 40.72L 125.052 58L 136.188 58L 136.188 15.312L 125.052 15.312L 125.052 31.248L 109.052 31.248L 109.052 15.312ZM 170.383 24.72L 170.383 15.312L 141.136 15.312L 141.136 24.72L 150.224 24.72L 150.224 58L 161.295 58L 161.295 24.72L 170.383 24.72ZM 199.549 15.312L 175.293 15.312L 175.293 58L 199.549 58L 199.549 48.592L 186.365 48.592L 186.365 41.232L 198.844 41.232L 198.844 31.824L 186.365 31.824L 186.365 24.72L 199.549 24.72L 199.549 15.312ZM 217.677 15.312L 206.605 15.312L 206.605 58L 217.677 58L 217.677 40.72L 233.677 40.72L 233.677 58L 244.813 58L 244.813 15.312L 233.677 15.312L 233.677 31.248L 217.677 31.248L 217.677 15.312ZM 279.008 24.72L 279.008 15.312L 249.761 15.312L 249.761 24.72L 258.849 24.72L 258.849 58L 269.92 58L 269.92 24.72L 279.008 24.72Z"/>
</defs>
</svg>
