<svg width="514" height="96" viewBox="0 0 514 96" version="1.1" xmlns="http://www.w3.org/2000/svg" xmlns:xlink="http://www.w3.org/1999/xlink">
<title>text-4</title>
<desc>Created using Figma</desc>
<g id="Canvas" transform="translate(-6588 328)">
<g id="text-4">
<g id="Group 5">
<g id="&#208;&#184;&#209;&#130;&#208;&#190;&#208;&#179;&#208;&#190;">
<use xlink:href="#path0_fill" transform="translate(6588.48 -276.637)" fill="#8D76BE"/>
<use xlink:href="#path1_fill" transform="translate(6588.48 -276.637)" fill="#8D76BE"/>
<use xlink:href="#path2_fill" transform="translate(6588.48 -276.637)" fill="#8D76BE"/>
<use xlink:href="#path3_fill" transform="translate(6588.48 -276.637)" fill="#8D76BE"/>
<use xlink:href="#path4_fill" transform="translate(6588.48 -276.637)" fill="#8D76BE"/>
</g>
</g>
<g id="&#208;&#184;&#209;&#130;&#208;&#190;&#208;&#179;&#208;&#190;" opacity="0.06">
<use xlink:href="#path5_fill" transform="translate(6708 -328)" fill="#8D76BE"/>
<use xlink:href="#path6_fill" transform="translate(6708 -328)" fill="#8D76BE"/>
<use xlink:href="#path7_fill" transform="translate(6708 -328)" fill="#8D76BE"/>
<use xlink:href="#path8_fill" transform="translate(6708 -328)" fill="#8D76BE"/>
<use xlink:href="#path9_fill" transform="translate(6708 -328)" fill="#8D76BE"/>
</g>
</g>
</g>
<defs>
<path id="path0_fill" d="M 0 0.960199L 0 43.6571L 11.328 43.6571L 27.328 16.7715L 27.328 43.6571L 38.464 43.6571L 38.464 0.960199L 27.136 0.960199L 11.136 27.8458L 11.136 0.960199L 0 0.960199Z"/>
<path id="path1_fill" d="M 72.6535 10.3702L 72.6535 0.960199L 43.4055 0.960199L 43.4055 10.3702L 52.4935 10.3702L 52.4935 43.6571L 63.5655 43.6571L 63.5655 10.3702L 72.6535 10.3702Z"/>
<path id="path2_fill" d="M 122.746 22.3407C 122.746 16.6435 120.57 10.6262 116.026 6.33732C 111.674 2.17645 105.531 0 99.1945 0C 92.8585 0 86.7145 2.17645 82.3625 6.33732C 77.8185 10.6262 75.6425 16.6435 75.6425 22.3407C 75.6425 27.9738 77.8185 33.9271 82.3625 38.28C 86.7145 42.4408 92.8585 44.6173 99.1945 44.6173C 105.531 44.6173 111.674 42.4408 116.026 38.28C 120.57 33.9271 122.746 27.9738 122.746 22.3407ZM 99.1945 10.7542C 102.138 10.7542 105.402 11.9065 107.771 14.1469C 109.755 16.0673 111.226 19.012 111.226 22.3407C 111.226 25.6053 109.755 28.55 107.771 30.5344C 105.786 32.5188 102.97 33.8631 99.1945 33.8631C 95.4825 33.8631 92.6025 32.4548 90.5545 30.4704C 88.9545 28.934 87.1625 26.3095 87.1625 22.5327C 87.1625 19.5241 88.2505 16.3874 90.5545 14.1469C 92.8585 11.8425 96.1225 10.7542 99.1945 10.7542Z"/>
<path id="path3_fill" d="M 154.773 0.960199L 129.812 0.960199L 129.812 43.6571L 140.885 43.6571L 140.885 10.3702L 154.773 10.3702L 154.773 0.960199Z"/>
<path id="path4_fill" d="M 203.997 22.3407C 203.997 16.6435 201.82 10.6262 197.277 6.33732C 192.924 2.17645 186.781 0 180.445 0C 174.109 0 167.965 2.17645 163.613 6.33732C 159.068 10.6262 156.893 16.6435 156.893 22.3407C 156.893 27.9738 159.068 33.9271 163.613 38.28C 167.965 42.4408 174.109 44.6173 180.445 44.6173C 186.781 44.6173 192.924 42.4408 197.277 38.28C 201.82 33.9271 203.997 27.9738 203.997 22.3407ZM 180.445 10.7542C 183.389 10.7542 186.653 11.9065 189.021 14.1469C 191.005 16.0673 192.477 19.012 192.477 22.3407C 192.477 25.6053 191.005 28.55 189.021 30.5344C 187.036 32.5188 184.221 33.8631 180.445 33.8631C 176.732 33.8631 173.853 32.4548 171.805 30.4704C 170.204 28.934 168.413 26.3095 168.413 22.5327C 168.413 19.5241 169.501 16.3874 171.805 14.1469C 174.109 11.8425 177.372 10.7542 180.445 10.7542Z"/>
<path id="path5_fill" d="M 0 1.78622L 0 81.2138L 25.7194 81.2138L 43.0237 51.4433C 44.6831 48.5854 47.0535 42.9885 48.2387 39.5351L 49.3054 39.5351C 48.5943 43.4648 47.8832 49.7762 47.8832 54.1822L 47.8832 81.2138L 75.1434 81.2138L 75.1434 1.78622L 49.424 1.78622L 32.1197 32.7475C 30.3418 35.8436 28.2084 41.2023 26.9047 44.6557L 25.8379 44.6557C 26.5491 40.4878 27.2602 34.1765 27.2602 30.0086L 27.2602 1.78622L 0 1.78622Z"/>
<path id="path6_fill" d="M 128.192 81.2138L 128.192 26.9125L 144.311 27.627L 144.311 1.78622L 83.8641 1.78622L 83.8641 27.627L 99.9832 26.9125L 99.9832 81.2138L 128.192 81.2138Z"/>
<path id="path7_fill" d="M 237.281 41.4405C 237.281 28.8178 232.422 19.0531 226.259 12.7418C 219.503 5.835 208.48 0 193.428 0C 178.376 0 167.353 5.835 160.597 12.7418C 154.434 19.0531 149.575 28.8178 149.575 41.4405C 149.575 54.1822 154.434 63.9469 160.597 70.2582C 167.353 77.165 178.376 83 193.428 83C 208.48 83 219.503 77.165 226.259 70.2582C 232.422 63.9469 237.281 54.1822 237.281 41.4405ZM 193.428 25.6026C 198.169 25.6026 201.606 27.5079 203.74 29.6514C 206.584 32.3902 208.243 36.5581 208.243 41.5595C 208.243 46.561 206.347 50.7288 203.74 53.3486C 201.369 55.7303 197.813 57.3974 193.428 57.3974C 189.043 57.3974 185.487 55.7303 183.117 53.3486C 180.272 50.4907 178.613 46.0846 178.613 41.5595C 178.613 37.2726 180.272 32.6284 183.117 29.6514C 185.013 27.627 188.332 25.6026 193.428 25.6026Z"/>
<path id="path8_fill" d="M 278.344 81.2138L 278.344 24.4118L 303.115 24.4118L 303.115 1.78622L 249.662 1.78622L 249.662 81.2138L 278.344 81.2138Z"/>
<path id="path9_fill" d="M 394 41.4405C 394 28.8178 389.141 19.0531 382.977 12.7418C 376.222 5.835 365.199 0 350.147 0C 335.094 0 324.072 5.835 317.316 12.7418C 311.153 19.0531 306.293 28.8178 306.293 41.4405C 306.293 54.1822 311.153 63.9469 317.316 70.2582C 324.072 77.165 335.094 83 350.147 83C 365.199 83 376.222 77.165 382.977 70.2582C 389.141 63.9469 394 54.1822 394 41.4405ZM 350.147 25.6026C 354.887 25.6026 358.325 27.5079 360.458 29.6514C 363.303 32.3902 364.962 36.5581 364.962 41.5595C 364.962 46.561 363.066 50.7288 360.458 53.3486C 358.088 55.7303 354.532 57.3974 350.147 57.3974C 345.761 57.3974 342.206 55.7303 339.835 53.3486C 336.991 50.4907 335.331 46.0846 335.331 41.5595C 335.331 37.2726 336.991 32.6284 339.835 29.6514C 341.731 27.627 345.05 25.6026 350.147 25.6026Z"/>
</defs>
</svg>
