<svg width="514" height="96" viewBox="0 0 514 96" version="1.1" xmlns="http://www.w3.org/2000/svg" xmlns:xlink="http://www.w3.org/1999/xlink">
<title>text-3</title>
<desc>Created using Figma</desc>
<g id="Canvas" transform="translate(-3172 328)">
<g id="text-3">
<g id="Group 5">
<g id="&#208;&#160;&#208;&#181;&#208;&#186;&#208;&#187;&#208;&#176;&#208;&#188;&#208;&#176;">
<use xlink:href="#path0_fill" transform="translate(3172.48 -275.467)" fill="#8D76BE"/>
<use xlink:href="#path1_fill" transform="translate(3172.48 -275.467)" fill="#8D76BE"/>
<use xlink:href="#path2_fill" transform="translate(3172.48 -275.467)" fill="#8D76BE"/>
<use xlink:href="#path3_fill" transform="translate(3172.48 -275.467)" fill="#8D76BE"/>
<use xlink:href="#path4_fill" transform="translate(3172.48 -275.467)" fill="#8D76BE"/>
<use xlink:href="#path5_fill" transform="translate(3172.48 -275.467)" fill="#8D76BE"/>
<use xlink:href="#path6_fill" transform="translate(3172.48 -275.467)" fill="#8D76BE"/>
</g>
</g>
<g id="&#208;&#160;&#208;&#181;&#208;&#186;&#208;&#187;&#208;&#176;&#208;&#188;&#208;&#176;" opacity="0.06">
<use xlink:href="#path7_fill" transform="translate(3257 -328)" fill="#8D76BE"/>
<use xlink:href="#path8_fill" transform="translate(3257 -328)" fill="#8D76BE"/>
<use xlink:href="#path9_fill" transform="translate(3257 -328)" fill="#8D76BE"/>
<use xlink:href="#path10_fill" transform="translate(3257 -328)" fill="#8D76BE"/>
<use xlink:href="#path11_fill" transform="translate(3257 -328)" fill="#8D76BE"/>
<use xlink:href="#path12_fill" transform="translate(3257 -328)" fill="#8D76BE"/>
<use xlink:href="#path13_fill" transform="translate(3257 -328)" fill="#8D76BE"/>
</g>
</g>
</g>
<defs>
<path id="path0_fill" d="M 18.048 28.6647C 21.376 28.6647 25.344 28.2148 28.672 24.937C 32 21.6592 32.448 17.6744 32.448 14.2681C 32.448 10.6689 31.808 7.06976 28.48 3.85623C 25.216 0.706974 21.376 0 17.664 0L 0 0L 0 42.8684L 11.072 42.8684L 11.072 28.6647L 18.048 28.6647ZM 11.072 8.99787L 14.848 8.99787C 16.256 8.99787 18.304 9.19069 19.584 10.5404C 20.736 11.6972 20.864 13.2397 20.864 14.3966C 20.864 15.4249 20.8 17.1602 19.456 18.3171C 18.112 19.5382 15.936 19.6668 14.784 19.6668L 11.072 19.6668L 11.072 8.99787Z"/>
<path id="path1_fill" d="M 62.5685 0L 38.3125 0L 38.3125 42.8684L 62.5685 42.8684L 62.5685 33.4207L 49.3845 33.4207L 49.3845 26.0296L 61.8645 26.0296L 61.8645 16.5818L 49.3845 16.5818L 49.3845 9.44777L 62.5685 9.44777L 62.5685 0Z"/>
<path id="path2_fill" d="M 80.697 0L 69.625 0L 69.625 42.8684L 80.697 42.8684L 80.697 24.2943L 95.161 42.8684L 109.497 42.8684L 91.001 20.3095L 107.961 0L 94.265 0L 80.697 17.6744L 80.697 0Z"/>
<path id="path3_fill" d="M 119.035 0L 119.035 23.6516C 119.035 29.3074 117.499 31.1069 116.795 31.7496C 116.027 32.4566 114.811 33.035 113.083 33.035C 112.187 33.035 111.291 32.8422 110.523 32.5852L 110.523 42.8684C 111.355 43.0612 113.339 43.4469 115.579 43.4469C 120.123 43.4469 123.323 41.9687 125.563 39.7835C 129.723 35.6059 130.043 29.1145 130.043 25.0012L 130.043 9.38349L 140.795 9.38349L 140.795 42.8684L 151.931 42.8684L 151.931 0L 119.035 0Z"/>
<path id="path4_fill" d="M 189.547 42.8684L 201.387 42.8684L 185.323 0L 173.227 0L 156.843 42.8684L 168.555 42.8684L 171.435 35.6701L 186.923 35.6701L 189.547 42.8684ZM 174.507 27.1864L 179.179 13.304L 183.979 27.1864L 174.507 27.1864Z"/>
<path id="path5_fill" d="M 215.4 42.8684L 219.049 18.1886L 228.905 42.8684L 233.321 42.8684L 243.624 18.1886L 246.761 42.8684L 257.832 42.8684L 251.433 0L 240.361 0L 231.209 22.8803L 222.568 0L 211.624 0L 204.393 42.8684L 215.4 42.8684Z"/>
<path id="path6_fill" d="M 293.547 42.8684L 305.387 42.8684L 289.323 0L 277.227 0L 260.843 42.8684L 272.555 42.8684L 275.435 35.6701L 290.923 35.6701L 293.547 42.8684ZM 278.507 27.1864L 283.179 13.304L 287.979 27.1864L 278.507 27.1864Z"/>
<path id="path7_fill" d="M 19.6238 55.3243L 19.6238 38.6524L 29.3525 38.6524C 36.2541 38.6524 40.5779 36.247 42.9893 34.0074C 45.4839 31.7679 48.4773 27.4548 48.4773 20.0727C 48.4773 12.3588 45.4007 7.87977 42.823 5.39142C 38.0002 0.746504 32.3459 0 26.6085 0L 0 0L 0 55.3243L 19.6238 55.3243ZM 19.6238 15.1789L 23.2824 15.1789C 24.7792 15.1789 26.4422 15.6766 27.3568 16.4231C 28.1052 17.0037 28.8536 18.082 28.8536 19.8239C 28.8536 21.4828 28.2715 22.561 27.5231 23.2246C 26.1096 24.6347 24.0308 24.7176 23.033 24.7176L 19.6238 24.7176L 19.6238 15.1789Z"/>
<path id="path8_fill" d="M 93.3785 55.3243L 93.3785 40.1454L 75.5841 40.1454L 75.5841 34.8369L 91.2997 34.8369L 91.2997 20.3215L 75.5841 20.3215L 75.5841 15.1789L 92.8796 15.1789L 92.8796 0L 55.4614 0L 55.4614 55.3243L 93.3785 55.3243Z"/>
<path id="path9_fill" d="M 121.282 55.3243L 121.282 37.4911C 121.282 35.6663 121.199 34.1733 120.866 32.2656L 121.282 32.2656C 122.03 33.9245 122.945 35.9152 123.942 37.5741L 134.087 55.3243L 157.369 55.3243L 138.245 27.123L 155.54 0L 133.754 0L 124.192 17.9161C 123.194 19.7409 122.446 20.9851 121.282 24.137L 120.866 24.137C 121.199 21.6486 121.282 19.658 121.282 17.1696L 121.282 0L 101.991 0L 101.991 55.3243L 121.282 55.3243Z"/>
<path id="path10_fill" d="M 170.585 0L 170.585 30.2749C 170.585 32.6803 170.501 36.4958 168.256 38.6524C 166.677 40.1454 164.598 40.3113 162.768 40.3113C 161.521 40.3113 160.69 40.3113 159.442 39.9795L 159.442 55.5731C 161.937 55.9879 164.93 56.2367 167.841 56.2367C 172.248 56.2367 178.318 55.6561 182.725 51.0941C 187.797 45.7856 188.046 37.657 188.046 34.0904L 188.046 17.4184L 199.688 17.4184L 199.688 55.3243L 219.062 55.3243L 219.062 0L 170.585 0Z"/>
<path id="path11_fill" d="M 262.722 48.4399L 264.551 55.3243L 285.921 55.3243L 266.131 0L 243.846 0L 224.638 55.3243L 245.925 55.3243L 247.422 48.4399L 262.722 48.4399ZM 256.652 24.7176L 259.229 35.3346L 251.164 35.3346L 253.908 24.7176C 254.407 22.7269 254.739 20.8192 254.822 18.4967L 255.571 18.4967C 255.82 20.4874 256.153 22.561 256.652 24.7176Z"/>
<path id="path12_fill" d="M 308.813 55.3243L 311.557 29.3625C 311.64 28.2842 311.64 26.1277 311.64 25.0494L 312.222 25.0494C 312.305 27.3718 312.721 29.1137 313.303 31.1044L 320.704 55.3243L 332.511 55.3243L 340.743 29.6943C 341.076 28.616 341.575 26.4595 341.824 25.0494L 342.157 25.0494C 342.157 27.3718 342.323 28.616 342.489 30.5238L 344.984 55.3243L 364.358 55.3243L 355.295 0L 334.756 0L 328.27 22.644C 327.605 24.9664 327.273 26.6253 327.189 29.0307L 326.691 29.0307C 326.607 28.2842 326.275 25.5471 325.443 22.644L 318.957 0L 298.253 0L 289.272 55.3243L 308.813 55.3243Z"/>
<path id="path13_fill" d="M 405.801 48.4399L 407.63 55.3243L 429 55.3243L 409.21 0L 386.925 0L 367.717 55.3243L 389.004 55.3243L 390.501 48.4399L 405.801 48.4399ZM 399.731 24.7176L 402.308 35.3346L 394.243 35.3346L 396.987 24.7176C 397.486 22.7269 397.818 20.8192 397.901 18.4967L 398.65 18.4967C 398.899 20.4874 399.232 22.561 399.731 24.7176Z"/>
</defs>
</svg>
