<svg width="48" height="48" viewBox="0 0 48 48" version="1.1" xmlns="http://www.w3.org/2000/svg" xmlns:xlink="http://www.w3.org/1999/xlink">
<title>twitter</title>
<desc>Created using Figma</desc>
<g id="Canvas" transform="translate(731 106)">
<g id="twitter">
<path d="M -731 -106L -683 -106L -683 -58L -731 -58L -731 -106Z" fill="#FFFFFF" fill-opacity="0.2"/>
<g id="Group">
<g id="Vector">
<use xlink:href="#path0_fill" transform="translate(-731 -106)" fill="#26A6D1"/>
</g>
<g id="Vector">
<use xlink:href="#path1_fill" transform="translate(-720.503 -92.491)" fill="#FFFFFF"/>
</g>
</g>
</g>
</g>
<defs>
<path id="path0_fill" d="M 23.9999 0C 37.2555 0 48 10.746 48 24.0001C 48 37.2557 37.2555 48 23.9999 48C 10.7443 48 0 37.2555 0 24.0001C 0 10.746 10.7445 0 23.9999 0Z"/>
<path id="path1_fill" d="M 28.5075 2.65952C 27.4591 3.11246 26.3309 3.41696 25.1475 3.55503C 26.3566 2.85147 27.2836 1.73995 27.72 0.412578C 26.5891 1.06506 25.338 1.53761 24.0045 1.79103C 22.938 0.688565 21.4185 -1.70963e-07 19.7356 -1.70963e-07C 16.5076 -1.70963e-07 13.8886 2.53957 13.8886 5.67444C 13.8886 6.11997 13.9397 6.55347 14.04 6.96902C 9.18004 6.73208 4.86905 4.47147 1.98611 1.03804C 1.48209 1.87654 1.19407 2.84999 1.19407 3.89099C 1.19407 5.85898 2.22601 7.59893 3.7951 8.61456C 2.83516 8.58457 1.93503 8.33099 1.14464 7.90358L 1.14464 7.97559C 1.14464 10.7266 3.16058 13.0201 5.83657 13.5421C 5.34606 13.6711 4.83 13.7416 4.29599 13.7416C 3.9195 13.7416 3.55355 13.7072 3.1965 13.6396C 3.94042 15.8956 6.10053 17.5366 8.66102 17.5817C 6.6586 19.1057 4.13699 20.0117 1.39657 20.0117C 0.924018 20.0117 0.459043 19.9847 3.01699e-08 19.9323C 2.59048 21.5432 5.66258 22.4837 8.96699 22.4837C 19.725 22.4837 25.6081 13.8318 25.6081 6.3317L 25.5916 5.59667C 26.7314 4.79853 27.723 3.79955 28.5075 2.65952Z"/>
</defs>
</svg>
