<svg width="48" height="48" viewBox="0 0 48 48" version="1.1" xmlns="http://www.w3.org/2000/svg" xmlns:xlink="http://www.w3.org/1999/xlink">
<title>vk</title>
<desc>Created using Figma</desc>
<g id="Canvas" transform="translate(901 106)">
<g id="vk">
<path d="M -901 -106L -853 -106L -853 -58L -901 -58L -901 -106Z" fill="#FFFFFF" fill-opacity="0.2"/>
<g id="Group">
<g id="Group">
<g id="XMLID 11">
<use xlink:href="#path0_fill" transform="translate(-901 -106)" fill="#4D76A1"/>
</g>
</g>
<g id="Vector">
<use xlink:href="#path1_fill" transform="translate(-893.325 -89.3767)" fill="#FFFFFF"/>
</g>
</g>
</g>
</g>
<defs>
<path id="path0_fill" d="M 24 48C 37.2548 48 48 37.2548 48 24C 48 10.7452 37.2548 0 24 0C 10.7452 0 0 10.7452 0 24C 0 37.2548 10.7452 48 24 48Z"/>
<path id="path1_fill" fill-rule="evenodd" d="M 15.4185 17.9029L 17.3022 17.9029C 17.3022 17.9029 17.8712 17.8404 18.1617 17.5273C 18.4291 17.2398 18.4205 16.6999 18.4205 16.6999C 18.4205 16.6999 18.3837 14.1723 19.5568 13.8001C 20.7132 13.4334 22.1982 16.243 23.7722 17.3232C 24.9624 18.1408 25.8668 17.9615 25.8668 17.9615L 30.0753 17.9029C 30.0753 17.9029 32.2769 17.7673 31.233 16.0363C 31.1474 15.8947 30.625 14.7558 28.1039 12.4157C 25.4651 9.96637 25.8184 10.3625 28.9972 6.1258C 30.9331 3.5456 31.707 1.97036 31.4653 1.29568C 31.2347 0.653093 29.8109 0.822939 29.8109 0.822939L 25.0723 0.852459C 25.0723 0.852459 24.7211 0.804542 24.4605 0.960269C 24.206 1.113 24.0421 1.46895 24.0421 1.46895C 24.0421 1.46895 23.2922 3.4656 22.2919 5.16363C 20.1819 8.74664 19.3382 8.93574 18.9934 8.71327C 18.1912 8.19475 18.3914 6.63021 18.3914 5.51872C 18.3914 2.04651 18.9181 0.598761 17.366 0.223988C 16.8509 0.0994914 16.4718 0.0173494 15.1545 0.00408693C 13.4638 -0.0134538 12.0327 0.00922024 11.2224 0.40624C 10.6834 0.670206 10.2675 1.25846 10.5208 1.29226C 10.834 1.33419 11.5433 1.4835 11.9193 1.9956C 12.4049 2.65616 12.3878 4.13985 12.3878 4.13985C 12.3878 4.13985 12.6667 8.22727 11.7362 8.73509C 11.0975 9.08334 10.2213 8.3723 8.34018 5.1217C 7.37629 3.45662 6.64857 1.61612 6.64857 1.61612C 6.64857 1.61612 6.50824 1.27215 6.25796 1.08819C 5.95421 0.865293 5.52981 0.794276 5.52981 0.794276L 1.02697 0.823794C 1.02697 0.823794 0.351015 0.842619 0.102878 1.13653C -0.117879 1.39793 0.0853368 1.9387 0.0853368 1.9387C 0.0853368 1.9387 3.6106 10.1863 7.60218 14.3426C 11.2622 18.1532 15.4185 17.9029 15.4185 17.9029Z"/>
</defs>
</svg>
