<?xml version="1.0" standalone="no"?>
<!DOCTYPE svg PUBLIC "-//W3C//DTD SVG 20010904//EN"
 "http://www.w3.org/TR/2001/REC-SVG-20010904/DTD/svg10.dtd">
<svg version="1.0" xmlns="http://www.w3.org/2000/svg"
 width="108.000000pt" height="108.000000pt" viewBox="0 0 108.000000 108.000000"
 preserveAspectRatio="xMidYMid meet">
<metadata>
Created by potrace 1.11, written by Peter Selinger 2001-2013
</metadata>
<g transform="translate(0.000000,108.000000) scale(0.100000,-0.100000)"
fill="#000000" stroke="none">
<path d="M435 1070 c-158 -33 -296 -137 -373 -280 -42 -79 -57 -145 -56 -255
1 -98 4 -118 31 -188 61 -153 173 -261 333 -320 43 -15 81 -20 170 -20 101 -1
123 2 183 26 290 113 429 423 316 705 -61 152 -172 258 -329 314 -62 22 -211
32 -275 18z"/>
</g>
</svg>
