<svg width="20" height="20" viewBox="0 0 20 20" version="1.1" xmlns="http://www.w3.org/2000/svg" xmlns:xlink="http://www.w3.org/1999/xlink">
<title>ico-info</title>
<desc>Created using Figma</desc>
<g id="Canvas" transform="translate(901 28)">
<g id="ico-info">
<g id="round-information-button">
<g id="Group">
<g id="Group">
<g id="Vector">
<use xlink:href="#path0_fill" transform="translate(-901 -28)" fill="#545462"/>
</g>
<g id="Vector">
<use xlink:href="#path1_fill" transform="translate(-892.06 -23.4504)" fill="#545462"/>
</g>
<g id="Vector">
<use xlink:href="#path2_fill" transform="translate(-892.86 -20.9276)" fill="#545462"/>
</g>
</g>
</g>
</g>
</g>
</g>
<defs>
<path id="path0_fill" d="M 9.9996 0C 4.48595 0 0 4.486 0 10C 0 15.514 4.48595 20 9.9996 20C 15.5136 20 20 15.514 20 10C 20 4.486 15.5136 0 9.9996 0ZM 9.9996 18.6885C 5.209 18.6885 1.3115 14.7908 1.3115 10C 1.3115 5.20915 5.20895 1.31155 9.9996 1.31155C 14.7908 1.31155 18.6884 5.2092 18.6884 10C 18.6884 14.7908 14.7908 18.6885 9.9996 18.6885Z"/>
<path id="path1_fill" d="M 0.8744 1.7489C 1.3572 1.7489 1.7488 1.3573 1.7488 0.87445C 1.7488 0.3916 1.3572 -1.61743e-07 0.8744 -1.61743e-07C 0.3912 -1.61743e-07 -3.66211e-07 0.3916 -3.66211e-07 0.87445C -3.66211e-07 1.3573 0.3912 1.7489 0.8744 1.7489Z"/>
<path id="path2_fill" d="M 3.06445 6.9069L 2.516 6.9069L 2.516 0.6558C 2.516 0.29365 2.22245 -9.76562e-08 1.86035 -9.76562e-08L 0.65565 -9.76562e-08C 0.29355 -9.76562e-08 -2.56348e-07 0.29365 -2.56348e-07 0.6558C -2.56348e-07 1.01795 0.29355 1.31155 0.65565 1.31155L 1.2045 1.31155L 1.2045 6.9069L 0.65565 6.9069C 0.29355 6.9069 -2.56348e-07 7.2005 -2.56348e-07 7.56265C -2.56348e-07 7.92475 0.29355 8.2184 0.65565 8.2184L 3.06445 8.2184C 3.42675 8.2184 3.7203 7.92475 3.7203 7.56265C 3.7203 7.2005 3.42675 6.9069 3.06445 6.9069Z"/>
</defs>
</svg>
