<svg width="48" height="48" viewBox="0 0 48 48" version="1.1" xmlns="http://www.w3.org/2000/svg" xmlns:xlink="http://www.w3.org/1999/xlink">
<title>instagram</title>
<desc>Created using Figma</desc>
<g id="Canvas" transform="translate(559 106)">
<g id="instagram">
<path d="M -559 -106L -511 -106L -511 -58L -559 -58L -559 -106Z" fill="#FFFFFF" fill-opacity="0.2"/>
<g id="Group">
<g id="Vector">
<use xlink:href="#path0_fill" transform="translate(-559 -106)" fill="#3F729B"/>
</g>
<g id="Vector">
<use xlink:href="#path1_fill" transform="translate(-548.503 -95.503)" fill="#FFFFFF"/>
</g>
</g>
</g>
</g>
<defs>
<path id="path0_fill" d="M 23.9999 0C 37.2538 0 48 10.746 48 24.0001C 48 37.2542 37.254 48 24.0001 48C 10.7462 48 0 37.254 0 24.0001C 0 10.7462 10.7445 0 23.9999 0Z"/>
<path id="path1_fill" d="M 21.7859 3.01699e-08L 5.21853 3.01699e-08C 2.34003 3.01699e-08 3.01699e-08 2.34152 3.01699e-08 5.21853L 3.01699e-08 21.7876C 3.01699e-08 24.6661 2.34152 27.0061 5.21853 27.0061L 21.7876 27.0061C 24.6661 27.0061 27.0061 24.6646 27.0061 21.7876L 27.0061 5.21853C 27.0059 2.34152 24.6644 3.01699e-08 21.7859 3.01699e-08ZM 23.43 3.01953L 24.021 3.01805L 24.021 7.50007L 19.506 7.51506L 19.491 3.03305L 23.43 3.01953ZM 13.5031 8.98495C 17.2486 8.98495 18.021 12.5009 18.021 13.5044C 18.021 15.9929 15.993 18.0208 13.5031 18.0208C 11.0116 18.0208 8.98512 15.9929 8.98512 13.5044C 8.98347 12.5009 9.75755 8.98495 13.5031 8.98495ZM 24.0465 21.4605C 24.0465 22.8871 22.8871 24.048 21.4576 24.048L 5.49748 24.048C 4.06944 24.048 2.90848 22.8886 2.90848 21.4605L 2.90848 10.497L 6.65843 10.497C 6.31044 11.3535 6.11388 12.5235 6.11388 13.5045C 6.11388 17.5756 9.42587 20.8891 13.4984 20.8891C 17.571 20.8891 20.8814 17.5756 20.8814 13.5045C 20.8814 12.5235 20.6848 11.3535 20.3383 10.497L 24.0433 10.497L 24.0433 21.4605L 24.0465 21.4605Z"/>
</defs>
</svg>
