<svg width="48" height="48" viewBox="0 0 48 48" version="1.1" xmlns="http://www.w3.org/2000/svg" xmlns:xlink="http://www.w3.org/1999/xlink">
<title>odnoklassniki</title>
<desc>Created using Figma</desc>
<g id="Canvas" transform="translate(473 106)">
<g id="odnoklassniki">
<path d="M -473 -106L -425 -106L -425 -58L -473 -58L -473 -106Z" fill="#FFFFFF" fill-opacity="0.2"/>
<g id="Group">
<g id="Group">
<g id="Vector">
<use xlink:href="#path0_fill" transform="translate(-453.14 -94.3828)" fill="#F2994A"/>
</g>
<g id="Vector">
<use xlink:href="#path1_fill" transform="translate(-473 -106)" fill="#F2994A"/>
</g>
</g>
</g>
</g>
</g>
<defs>
<path id="path0_fill" d="M 4.16225 8.27368C 6.45398 8.26533 8.2792 6.42439 8.27086 4.12776C 8.26251 1.83014 6.43335 0.00196708 4.14065 2.88981e-06C 1.82879 -0.00245235 -0.017552 1.8596 0.000125737 4.17784C 0.0173124 6.46613 1.86316 8.28203 4.16225 8.27368Z"/>
<path id="path1_fill" d="M 24 0C 10.7451 0 0 10.7456 0 24C 0 37.2544 10.7451 48 24 48C 37.2549 48 48 37.2544 48 24C 48 10.7456 37.2549 0 24 0ZM 24.0344 7.29846C 28.7092 7.31122 32.4613 11.135 32.4372 15.8614C 32.4136 20.4787 28.6001 24.221 23.9332 24.2053C 19.3139 24.1895 15.5255 20.3599 15.553 15.7332C 15.579 11.056 19.3694 7.28569 24.0344 7.29846ZM 33.5028 27.5267C 32.4691 28.5879 31.2248 29.3559 29.843 29.8916C 28.5368 30.3979 27.1054 30.6527 25.6882 30.8226C 25.9028 31.0554 26.0035 31.1698 26.137 31.3034C 28.06 33.2366 29.9923 35.1601 31.9088 37.0987C 32.5619 37.7597 32.6979 38.5787 32.3385 39.3463C 31.9461 40.1859 31.0657 40.7379 30.2019 40.6785C 29.6549 40.6407 29.2282 40.3691 28.8496 39.9876C 27.3981 38.5272 25.919 37.0928 24.4979 35.605C 24.083 35.1718 23.8846 35.2543 23.5188 35.6305C 22.0589 37.1341 20.5749 38.6136 19.0826 40.0853C 18.4124 40.7462 17.6149 40.866 16.8371 40.4879C 16.0106 40.0882 15.4852 39.2441 15.5255 38.3951C 15.554 37.8225 15.8358 37.3835 16.2296 36.9917C 18.1334 35.0918 20.0313 33.186 21.9297 31.2818C 22.0559 31.1556 22.1728 31.0215 22.356 30.8251C 19.7667 30.5545 17.4317 29.9171 15.4327 28.3541C 15.1842 28.1597 14.9284 27.9721 14.7025 27.7541C 13.8269 26.9139 13.739 25.9509 14.4309 24.96C 15.0236 24.1115 16.0175 23.8846 17.0512 24.3722C 17.2515 24.466 17.442 24.5848 17.6247 24.7105C 21.3498 27.2704 26.4675 27.3406 30.2073 24.825C 30.5776 24.5421 30.9739 24.3094 31.433 24.192C 32.3247 23.9622 33.1576 24.2907 33.6358 25.0715C 34.1834 25.9637 34.177 26.8338 33.5028 27.5267Z"/>
</defs>
</svg>
