<svg width="198" height="14" viewBox="0 0 198 14" version="1.1" xmlns="http://www.w3.org/2000/svg" xmlns:xlink="http://www.w3.org/1999/xlink">
<title>steps-4</title>
<desc>Created using Figma</desc>
<g id="Canvas" transform="translate(-4550 -590)">
<g id="steps-4">
<g id="Vector">
<use xlink:href="#path0_stroke" transform="translate(4557.5 597)" fill="#545462"/>
</g>
<g id="Ellipse 2">
<use xlink:href="#path1_fill" transform="translate(4550 590)" fill="#545462"/>
</g>
<g id="Ellipse 2.1">
<use xlink:href="#path1_fill" transform="translate(4596 590)" fill="#545462"/>
<mask id="mask0_outline_ins">
<use xlink:href="#path1_fill" fill="white" transform="translate(4596 590)"/>
</mask>
<g mask="url(#mask0_outline_ins)">
<use xlink:href="#path2_stroke_2x" transform="translate(4596 590)" fill="#545462"/>
</g>
</g>
<g id="Ellipse 2.2">
<use xlink:href="#path1_fill" transform="translate(4642 590)" fill="#545462"/>
<mask id="mask1_outline_ins">
<use xlink:href="#path1_fill" fill="white" transform="translate(4642 590)"/>
</mask>
<g mask="url(#mask1_outline_ins)">
<use xlink:href="#path2_stroke_2x" transform="translate(4642 590)" fill="#545462"/>
</g>
</g>
<g id="Ellipse 2.3">
<use xlink:href="#path1_fill" transform="translate(4688 590)" fill="#545462"/>
<mask id="mask2_outline_ins">
<use xlink:href="#path1_fill" fill="white" transform="translate(4688 590)"/>
</mask>
<g mask="url(#mask2_outline_ins)">
<use xlink:href="#path2_stroke_2x" transform="translate(4688 590)" fill="#545462"/>
</g>
</g>
<g id="Ellipse 2.4">
<use xlink:href="#path1_fill" transform="translate(4734 590)" fill="#FFFFFF"/>
<mask id="mask3_outline_ins">
<use xlink:href="#path1_fill" fill="white" transform="translate(4734 590)"/>
</mask>
<g mask="url(#mask3_outline_ins)">
<use xlink:href="#path2_stroke_2x" transform="translate(4734 590)" fill="#545462"/>
</g>
</g>
</g>
</g>
<defs>
<path id="path0_stroke" d="M 0 0.5L 183 0.5L 183 -0.5L 0 -0.5L 0 0.5Z"/>
<path id="path1_fill" d="M 14 7C 14 10.866 10.866 14 7 14C 3.13401 14 0 10.866 0 7C 0 3.13401 3.13401 0 7 0C 10.866 0 14 3.13401 14 7Z"/>
<path id="path2_stroke_2x" d="M 13 7C 13 10.3137 10.3137 13 7 13L 7 15C 11.4183 15 15 11.4183 15 7L 13 7ZM 7 13C 3.68629 13 1 10.3137 1 7L -1 7C -1 11.4183 2.58172 15 7 15L 7 13ZM 1 7C 1 3.68629 3.68629 1 7 1L 7 -1C 2.58172 -1 -1 2.58172 -1 7L 1 7ZM 7 1C 10.3137 1 13 3.68629 13 7L 15 7C 15 2.58172 11.4183 -1 7 -1L 7 1Z"/>
</defs>
</svg>
