<svg width="514" height="96" viewBox="0 0 514 96" version="1.1" xmlns="http://www.w3.org/2000/svg" xmlns:xlink="http://www.w3.org/1999/xlink">
<title>text-2</title>
<desc>Created using Figma</desc>
<g id="Canvas" transform="translate(-1518 328)">
<g id="text-2">
<g id="&#208;&#176;&#208;&#186;&#209;&#130;&#208;&#184;&#208;&#178;&#208;&#189;&#208;&#190;&#209;&#129;&#209;&#130;&#208;&#184;">
<use xlink:href="#path0_fill" transform="translate(1518.45 -276.637)" fill="#8D76BE"/>
<use xlink:href="#path1_fill" transform="translate(1518.45 -276.637)" fill="#8D76BE"/>
<use xlink:href="#path2_fill" transform="translate(1518.45 -276.637)" fill="#8D76BE"/>
<use xlink:href="#path3_fill" transform="translate(1518.45 -276.637)" fill="#8D76BE"/>
<use xlink:href="#path4_fill" transform="translate(1518.45 -276.637)" fill="#8D76BE"/>
<use xlink:href="#path5_fill" transform="translate(1518.45 -276.637)" fill="#8D76BE"/>
<use xlink:href="#path6_fill" transform="translate(1518.45 -276.637)" fill="#8D76BE"/>
<use xlink:href="#path7_fill" transform="translate(1518.45 -276.637)" fill="#8D76BE"/>
<use xlink:href="#path8_fill" transform="translate(1518.45 -276.637)" fill="#8D76BE"/>
<use xlink:href="#path9_fill" transform="translate(1518.45 -276.637)" fill="#8D76BE"/>
</g>
<g id="&#208;&#148;&#208;&#160;&#208;&#163;&#208;&#147;&#208;&#152;&#208;&#149;" opacity="0.06">
<use xlink:href="#path10_fill" transform="translate(1601 -328)" fill="#8D76BE"/>
<use xlink:href="#path11_fill" transform="translate(1601 -328)" fill="#8D76BE"/>
<use xlink:href="#path12_fill" transform="translate(1601 -328)" fill="#8D76BE"/>
<use xlink:href="#path13_fill" transform="translate(1601 -328)" fill="#8D76BE"/>
<use xlink:href="#path14_fill" transform="translate(1601 -328)" fill="#8D76BE"/>
<use xlink:href="#path15_fill" transform="translate(1601 -328)" fill="#8D76BE"/>
</g>
</g>
</g>
<defs>
<path id="path0_fill" d="M 32.704 43.6571L 44.544 43.6571L 28.48 0.960199L 16.384 0.960199L 0 43.6571L 11.712 43.6571L 14.592 36.4876L 30.08 36.4876L 32.704 43.6571ZM 17.664 28.0378L 22.336 14.211L 27.136 28.0378L 17.664 28.0378Z"/>
<path id="path1_fill" d="M 60.5415 0.960199L 49.4695 0.960199L 49.4695 43.6571L 60.5415 43.6571L 60.5415 25.1572L 75.0055 43.6571L 89.3415 43.6571L 70.8455 21.1884L 87.8055 0.960199L 74.1095 0.960199L 60.5415 18.5639L 60.5415 0.960199Z"/>
<path id="path2_fill" d="M 119.123 10.3702L 119.123 0.960199L 89.875 0.960199L 89.875 10.3702L 98.963 10.3702L 98.963 43.6571L 110.035 43.6571L 110.035 10.3702L 119.123 10.3702Z"/>
<path id="path3_fill" d="M 124.032 0.960199L 124.032 43.6571L 135.36 43.6571L 151.36 16.7715L 151.36 43.6571L 162.496 43.6571L 162.496 0.960199L 151.168 0.960199L 135.168 27.8458L 135.168 0.960199L 124.032 0.960199Z"/>
<path id="path4_fill" d="M 189.262 43.6571C 194.51 43.6571 198.542 41.9928 200.846 39.6243C 202.446 38.0239 203.982 35.2714 203.982 31.2385C 203.982 27.8458 202.83 25.0932 201.102 23.4289C 199.758 22.1486 197.517 21.1244 195.277 20.8683C 196.877 20.1642 197.838 19.204 198.734 17.5397C 199.63 15.7473 199.949 14.1469 199.949 12.2906C 199.949 8.51377 198.798 5.88923 197.326 4.28889C 194.701 1.40829 191.054 0.960199 187.982 0.960199L 171.469 0.960199L 171.469 43.6571L 189.262 43.6571ZM 182.542 9.47397L 184.589 9.47397C 186.765 9.47397 188.109 10.0501 188.813 10.7542C 189.453 11.4584 189.837 12.5466 189.837 13.6348C 189.837 14.595 189.517 15.7473 188.813 16.4514C 187.661 17.6677 185.741 17.7957 184.589 17.7957L 182.542 17.7957L 182.542 9.47397ZM 182.542 26.0534L 184.846 26.0534C 187.598 26.0534 190.349 26.1174 191.693 27.4617C 192.333 28.1019 192.781 29.1901 192.781 30.5344C 192.781 31.7506 192.397 32.7108 191.885 33.2869C 190.669 34.6952 188.11 35.0153 185.038 35.0153L 182.542 35.0153L 182.542 26.0534Z"/>
<path id="path5_fill" d="M 222.104 0.960199L 211.032 0.960199L 211.032 43.6571L 222.104 43.6571L 222.104 26.3735L 238.104 26.3735L 238.104 43.6571L 249.24 43.6571L 249.24 0.960199L 238.104 0.960199L 238.104 16.8995L 222.104 16.8995L 222.104 0.960199Z"/>
<path id="path6_fill" d="M 303.404 22.3407C 303.404 16.6435 301.228 10.6262 296.684 6.33732C 292.332 2.17645 286.188 0 279.852 0C 273.516 0 267.372 2.17645 263.02 6.33732C 258.476 10.6262 256.299 16.6435 256.299 22.3407C 256.299 27.9738 258.476 33.9271 263.02 38.28C 267.372 42.4408 273.516 44.6173 279.852 44.6173C 286.188 44.6173 292.332 42.4408 296.684 38.28C 301.228 33.9271 303.404 27.9738 303.404 22.3407ZM 279.852 10.7542C 282.796 10.7542 286.059 11.9065 288.427 14.1469C 290.411 16.0673 291.884 19.012 291.884 22.3407C 291.884 25.6053 290.411 28.55 288.427 30.5344C 286.443 32.5188 283.628 33.8631 279.852 33.8631C 276.14 33.8631 273.259 32.4548 271.211 30.4704C 269.611 28.934 267.819 26.3095 267.819 22.5327C 267.819 19.5241 268.907 16.3874 271.211 14.1469C 273.515 11.8425 276.78 10.7542 279.852 10.7542Z"/>
<path id="path7_fill" d="M 341.125 29.3821C 337.221 33.671 333.125 33.8631 331.461 33.8631C 328.325 33.8631 325.382 32.6468 323.526 30.9184C 321.286 28.806 320.069 25.5413 320.069 22.5967C 320.069 19.5881 321.157 16.2594 323.781 13.8269C 325.829 11.9705 328.261 11.0103 331.461 11.0103C 333.317 11.0103 337.541 11.2663 341.125 15.6833L 341.125 2.43251C 336.581 0.57612 333.19 0.256054 331.142 0.256054C 324.486 0.256054 318.789 3.07264 315.013 6.91344C 311.173 10.8183 308.549 16.5795 308.549 22.6607C 308.549 28.2299 310.853 34.0551 315.013 38.216C 318.533 41.6727 324.102 44.6173 331.526 44.6173C 334.278 44.6173 336.709 44.1052 341.125 42.5049L 341.125 29.3821Z"/>
<path id="path8_fill" d="M 374.998 10.3702L 374.998 0.960199L 345.75 0.960199L 345.75 10.3702L 354.838 10.3702L 354.838 43.6571L 365.91 43.6571L 365.91 10.3702L 374.998 10.3702Z"/>
<path id="path9_fill" d="M 379.907 0.960199L 379.907 43.6571L 391.235 43.6571L 407.235 16.7715L 407.235 43.6571L 418.371 43.6571L 418.371 0.960199L 407.043 0.960199L 391.043 27.8458L 391.043 0.960199L 379.907 0.960199Z"/>
<path id="path10_fill" d="M 14.4389 0L 14.4389 28.4984C 14.4389 34.916 14.2218 42.6389 9.7707 47.4249C 7.59943 49.7091 4.12541 51.667 0 52.1021L 0 87.0181L 22.1469 87.0181L 22.1469 72.5514L 61.2297 72.5514L 61.2297 87.0181L 83.3767 87.0181L 83.3767 52.1021L 74.6916 52.1021L 74.6916 0L 14.4389 0ZM 36.6944 20.8844L 50.1563 20.8844L 50.1563 52.1021L 30.0721 52.1021C 31.8091 50.5793 33.0033 49.0565 34.0889 46.9898C 36.6944 41.8775 36.6944 36.7652 36.6944 30.6739L 36.6944 20.8844Z"/>
<path id="path11_fill" d="M 118.427 72.5514L 118.427 50.6881L 131.128 50.6881C 140.139 50.6881 145.785 47.5337 148.933 44.5968C 152.19 41.6599 156.098 36.0038 156.098 26.323C 156.098 16.2071 152.081 10.3334 148.716 7.07022C 142.419 0.978954 135.037 0 127.546 0L 92.8056 0L 92.8056 72.5514L 118.427 72.5514ZM 118.427 19.9054L 123.203 19.9054C 125.157 19.9054 127.329 20.558 128.523 21.537C 129.5 22.2984 130.477 23.7124 130.477 25.9967C 130.477 28.1721 129.717 29.5862 128.74 30.4563C 126.894 32.3055 124.18 32.4143 122.878 32.4143L 118.427 32.4143L 118.427 19.9054Z"/>
<path id="path12_fill" d="M 155.729 0L 180.807 50.6881L 170.168 72.5514L 197.526 72.5514L 230.855 0L 203.714 0L 196.332 19.7966C 195.572 21.7545 194.92 24.2563 194.595 26.5405L 193.835 26.5405C 193.401 24.1475 192.749 22.1896 191.881 20.2317L 183.413 0L 155.729 0Z"/>
<path id="path13_fill" d="M 264.96 72.5514L 264.96 20.6668L 287.65 20.6668L 287.65 0L 238.688 0L 238.688 72.5514L 264.96 72.5514Z"/>
<path id="path14_fill" d="M 298.164 0L 298.164 72.5514L 321.722 72.5514L 337.573 45.3582C 339.093 42.7477 341.264 37.6353 342.35 34.4809L 343.327 34.4809C 342.675 38.0704 342.024 43.8354 342.024 47.86L 342.024 72.5514L 366.993 72.5514L 366.993 0L 343.435 0L 327.585 28.2809C 325.956 31.109 324.002 36.0038 322.808 39.1582L 321.831 39.1582C 322.482 35.3511 323.134 29.5862 323.134 25.7791L 323.134 0L 298.164 0Z"/>
<path id="path15_fill" d="M 431 72.5514L 431 52.646L 407.767 52.646L 407.767 45.6845L 428.286 45.6845L 428.286 26.6493L 407.767 26.6493L 407.767 19.9054L 430.349 19.9054L 430.349 0L 381.495 0L 381.495 72.5514L 431 72.5514Z"/>
</defs>
</svg>
