<svg width="48" height="48" viewBox="0 0 48 48" version="1.1" xmlns="http://www.w3.org/2000/svg" xmlns:xlink="http://www.w3.org/1999/xlink">
<title>youtube</title>
<desc>Created using Figma</desc>
<g id="Canvas" transform="translate(645 106)">
<g id="youtube">
<path d="M -645 -106L -597 -106L -597 -58L -645 -58L -645 -106Z" fill="#FFFFFF" fill-opacity="0.2"/>
<g id="Group">
<g id="Vector">
<use xlink:href="#path0_fill" transform="translate(-645 -106)" fill="#C4302B"/>
</g>
<g id="Vector">
<use xlink:href="#path1_fill" transform="translate(-634.496 -96.9925)" fill="#FFFFFF"/>
</g>
<g id="Vector">
<use xlink:href="#path2_fill" transform="translate(-613.347 -77.986)" fill="#FFFFFF"/>
</g>
</g>
</g>
</g>
<defs>
<path id="path0_fill" d="M 23.9999 0C 37.2555 0 48 10.746 48 24.0001C 48 37.2542 37.2555 48 23.9999 48C 10.7443 48 0 37.254 0 24.0001C 0 10.7462 10.7445 0 23.9999 0Z"/>
<path id="path1_fill" d="M 12.9165 10.4939C 13.6754 10.4939 14.2696 10.2523 14.7045 9.90897C 15.1366 9.56395 15.3526 9.09453 15.3526 8.49148L 15.3526 4.85241C 15.3526 4.31692 15.1321 3.87435 14.6925 3.53394C 14.2499 3.19336 13.6845 3.02398 12.9915 3.02398C 12.234 3.02398 11.628 3.18447 11.1795 3.50692C 10.7295 3.83085 10.5044 4.26287 10.5044 4.8104L 10.5044 8.46132C 10.5044 9.06124 10.7234 9.53528 11.1614 9.89085C 11.5993 10.2464 12.1861 10.4939 12.9165 10.4939ZM 12.1231 4.98752C 12.1231 4.84945 12.1951 4.73856 12.3377 4.65008C 12.4817 4.56456 12.6677 4.52255 12.8957 4.52255C 13.1447 4.52255 13.3457 4.56456 13.4973 4.65008C 13.6504 4.73856 13.7253 4.84961 13.7253 4.98752L 13.7253 8.44649C 13.7253 8.61752 13.6504 8.75247 13.5003 8.85001C 13.3503 8.94607 13.1493 8.9955 12.8957 8.9955C 12.6482 8.9955 12.4563 8.94903 12.3227 8.85149C 12.1907 8.75692 12.1231 8.62197 12.1231 8.44649L 12.1231 4.98752ZM 17.9386 10.4894C 18.2055 10.4894 18.4771 10.3364 18.7591 10.1835C 19.0442 10.0274 19.3156 9.7994 19.5767 9.50249L 19.5767 10.311L 20.9942 10.311L 20.9942 3.01344L 19.5767 3.01344L 19.5767 8.55293C 19.4447 8.71045 19.2978 8.84095 19.1403 8.94442C 18.9798 9.04641 18.8478 9.09897 18.7443 9.09897C 18.6109 9.09897 18.5133 9.06141 18.4563 8.98199C 18.3963 8.90554 18.3634 8.78097 18.3634 8.60994L 18.3634 3.01492L 16.9488 3.01492L 16.9488 9.11248C 16.9488 9.54747 17.0344 9.87305 17.1978 10.0891C 17.3641 10.3064 17.6101 10.4894 17.9386 10.4894ZM 22.0606 13.506L 4.93051 13.506C 2.20657 13.506 -2.71529e-07 15.6286 -2.71529e-07 18.2431L -2.71529e-07 22.2481C -2.71529e-07 24.8641 2.20657 26.9867 4.93051 26.9867L 22.0604 26.9867C 24.7829 26.9867 26.9909 24.8641 26.9909 22.2481L 26.9909 18.2431C 26.9911 15.6284 24.7831 13.506 22.0606 13.506ZM 7.47898 17.571L 5.9641 17.571L 5.9641 23.844L 4.49866 23.844L 4.49866 17.571L 2.98362 17.571L 2.98362 16.5015L 7.47914 16.5015C 7.47898 16.5015 7.47898 17.571 7.47898 17.571ZM 12 23.931L 10.4206 23.931L 10.4206 23.28C 10.1266 23.5201 9.82511 23.7045 9.5071 23.8276C 9.19355 23.9566 8.88758 24.018 8.59066 24.018C 8.22472 24.018 7.9517 23.9296 7.76567 23.7511C 7.58262 23.5756 7.4882 23.3117 7.4882 22.9591L 7.4882 18.0062L 9.06767 18.0062L 9.06767 22.5496C 9.06767 22.6907 9.10062 22.7897 9.16373 22.8526C 9.23277 22.9171 9.34217 22.9456 9.48931 22.9456C 9.60333 22.9456 9.75327 22.905 9.93023 22.821C 10.1087 22.7385 10.2723 22.6335 10.4207 22.503L 10.4207 18.0045L 12.0002 18.0045C 12 18.0045 12 23.931 12 23.931ZM 17.979 22.803C 17.979 23.1916 17.8559 23.487 17.6115 23.6956C 17.37 23.904 17.0131 24.006 16.5526 24.006C 16.2451 24.006 15.9721 23.967 15.735 23.8875C 15.4966 23.8081 15.2715 23.685 15.0675 23.5155L 15.0675 23.9355L 13.491 23.9355L 13.491 16.5015L 15.0675 16.5015L 15.0675 18.8971C 15.2806 18.7321 15.504 18.6031 15.7365 18.5161C 15.9749 18.4276 16.215 18.3856 16.4565 18.3856C 16.95 18.3856 17.3265 18.5011 17.586 18.7336C 17.8485 18.9676 17.979 19.3111 17.979 19.7596C 17.979 19.7595 17.979 22.803 17.979 22.803ZM 23.9881 21.1305L 21.0781 21.1305L 21.0781 22.2015C 21.0781 22.5 21.126 22.707 21.2265 22.824C 21.3285 22.9395 21.501 22.9965 21.7426 22.9965C 21.9977 22.9965 22.1717 22.9471 22.2736 22.8495C 22.3727 22.7505 22.4267 22.536 22.4267 22.2L 22.4267 21.942L 23.9912 21.942L 23.9912 22.2329C 23.9912 22.8149 23.8037 23.253 23.4166 23.5485C 23.0357 23.8424 22.4656 23.9894 21.7082 23.9894C 21.0257 23.9894 20.4887 23.8333 20.0972 23.5214C 19.7072 23.2125 19.5092 22.7805 19.5092 22.2344L 19.5092 19.6814C 19.5092 19.1908 19.7252 18.7858 20.1572 18.4754C 20.5877 18.1665 21.1397 18.0119 21.8222 18.0119C 22.5182 18.0119 23.0537 18.1559 23.4287 18.4425C 23.8022 18.729 23.9882 19.1429 23.9882 19.68C 23.9881 19.68 23.9881 21.1305 23.9881 21.1305ZM 6.63009 10.5105L 8.41964 10.5105L 8.41964 6.14996L 10.5031 -1.2068e-07L 8.68359 -1.2068e-07L 7.57652 4.20306L 7.4625 4.20306L 6.30155 -1.2068e-07L 4.49701 -1.2068e-07L 6.62993 6.34653C 6.63009 6.34653 6.63009 10.5105 6.63009 10.5105ZM 15.72 19.2554L 15.3885 19.3095L 15.066 19.4761L 15.066 22.893C 15.1921 22.9815 15.3165 23.049 15.4366 23.0864L 15.8131 23.1449C 16.0051 23.1449 16.1446 23.1074 16.2346 23.0279C 16.3231 22.9515 16.3695 22.8254 16.3695 22.6529L 16.3695 19.8194C 16.3695 19.6319 16.317 19.4924 16.2061 19.398C 16.0921 19.3035 15.9316 19.2554 15.72 19.2554Z"/>
<path id="path2_fill" d="M 0.67802 -6.43624e-07C 0.434987 -6.43624e-07 0.262475 0.0510784 0.156035 0.156035C 0.0510782 0.256544 -8.84983e-07 0.427573 -8.84983e-07 0.665992L -8.84983e-07 1.23905L 1.34549 1.23905L 1.34549 0.665992C 1.34549 0.427573 1.28997 0.258027 1.18501 0.156035C 1.08137 0.0510784 0.909024 -6.43624e-07 0.67802 -6.43624e-07Z"/>
</defs>
</svg>
